<svg class="icon" style="width: 1em; height: 1em;vertical-align: middle;fill: currentColor;overflow: hidden;" viewBox="0 0 1024 1024" version="1.1" xmlns="http://www.w3.org/2000/svg"><path d="M763.762 859.271c-7.346-7.348-19.257-7.348-26.603 0-7.346 7.346-7.346 19.255 0 26.601l66.509 66.511c7.346 7.344 19.255 7.344 26.601 0 7.348-7.348 7.348-19.259 0-26.605l-66.507-66.507z m-505.623 0l-66.507 66.507c-7.346 7.346-7.346 19.257 0 26.605 7.346 7.344 19.257 7.344 26.603 0l66.507-66.511c7.348-7.346 7.348-19.255 0-26.601-7.346-7.347-19.258-7.347-26.603 0zM878.44 291.899c51.424-51.424 51.424-134.798 0-186.223-51.423-51.424-134.798-51.424-186.223 0l-32.954 32.956c-40.376-14.802-83.995-22.882-129.5-22.882H492.14c-45.506 0-89.125 8.08-129.501 22.882l-32.956-32.956c-51.423-51.424-134.798-51.424-186.223 0-51.423 51.425-51.423 134.798 0 186.223l18.886 18.885c-29.592 53.747-46.434 115.501-46.434 181.192v37.625c0 207.784 168.442 376.226 376.226 376.226h37.623c207.782 0 376.226-168.442 376.226-376.226v-37.625c0-65.691-16.842-127.445-46.434-181.192l18.887-18.885zM720.15 130.95c35.997-35.995 94.956-35.401 131.687 1.33 36.731 36.731 37.327 95.689 1.33 131.685l-13.962 13.963c-36.213-52.253-85.323-94.89-142.722-123.31l23.667-23.668z m-550.084 1.33c36.731-36.731 95.688-37.325 131.685-1.33l23.668 23.668c-57.399 28.421-106.509 71.057-142.722 123.311l-13.963-13.964c-35.995-35.996-35.401-94.954 1.332-131.685z m698.3 378.508c0 197.395-160.02 357.417-357.415 357.417S153.536 708.183 153.536 510.788s160.02-357.415 357.415-357.415 357.415 160.02 357.415 357.415zM510.951 661.28c-76.742 0-140.064-57.445-149.322-131.679h-37.857c9.439 95.059 89.636 169.3 187.179 169.3 97.541 0 177.74-74.241 187.179-169.3h-37.857c-9.258 74.235-72.581 131.679-149.322 131.679z" /></svg>